<svg width="28" height="30" viewBox="0 0 28 30" fill="none" xmlns="http://www.w3.org/2000/svg">
<path d="M27.25 9.375C27.6625 9.375 28 9.05859 28 8.67188V6.32812C28 5.94141 27.6625 5.625 27.25 5.625H26V2.8125C26 1.25977 24.6562 0 23 0H3C1.34375 0 0 1.25977 0 2.8125V27.1875C0 28.7402 1.34375 30 3 30H23C24.6562 30 26 28.7402 26 27.1875V24.375H27.25C27.6625 24.375 28 24.0586 28 23.6719V21.3281C28 20.9414 27.6625 20.625 27.25 20.625H26V16.875H27.25C27.6625 16.875 28 16.5586 28 16.1719V13.8281C28 13.4414 27.6625 13.125 27.25 13.125H26V9.375H27.25ZM13 7.5C15.2063 7.5 17 9.18164 17 11.25C17 13.3184 15.2063 15 13 15C10.7937 15 9 13.3184 9 11.25C9 9.18164 10.7937 7.5 13 7.5ZM20 21.375C20 21.9961 19.375 22.5 18.6 22.5H7.4C6.625 22.5 6 21.9961 6 21.375V20.25C6 18.3867 7.88125 16.875 10.2 16.875H10.5125C11.2812 17.1738 12.1187 17.3438 13 17.3438C13.8813 17.3438 14.725 17.1738 15.4875 16.875H15.8C18.1187 16.875 20 18.3867 20 20.25V21.375Z" fill="#4E4E4D" fill-opacity="0.9"/>
</svg>
