<svg width="30" height="30" viewBox="0 0 30 30" fill="none" xmlns="http://www.w3.org/2000/svg">
<path d="M29.25 26.25H25.5V6.64742C25.5 5.05015 24.4908 3.74995 23.25 3.74995H18V7.49996H22.5V30H29.25C29.6644 30 30 29.5805 30 29.0625V27.1875C30 26.6695 29.6644 26.25 29.25 26.25ZM14.6362 0.0591227L5.63625 2.97358C4.96828 3.18979 4.5 3.96675 4.5 4.85855V26.25H0.75C0.335625 26.25 0 26.6695 0 27.1875V29.0625C0 29.5805 0.335625 30 0.75 30H16.5V1.94409C16.5 0.679632 15.5831 -0.247909 14.6362 0.0591227ZM12.375 16.875C11.7539 16.875 11.25 16.0353 11.25 15C11.25 13.9646 11.7539 13.125 12.375 13.125C12.9961 13.125 13.5 13.9646 13.5 15C13.5 16.0353 12.9961 16.875 12.375 16.875Z" fill="#4E4E4D" fill-opacity="0.9"/>
</svg>
