<svg width="36" height="30" viewBox="0 0 36 30" fill="none" xmlns="http://www.w3.org/2000/svg">
<path d="M12.6005 14.9996C16.5775 14.9996 19.8008 11.6423 19.8008 7.49982C19.8008 3.35734 16.5775 0 12.6005 0C8.62346 0 5.40021 3.35734 5.40021 7.49982C5.40021 11.6423 8.62346 14.9996 12.6005 14.9996ZM17.6407 16.8746H16.7013C15.4525 17.4722 14.0631 17.8121 12.6005 17.8121C11.1379 17.8121 9.75413 17.4722 8.49971 16.8746H7.5603C3.38638 16.8746 0 20.4019 0 24.7494V27.1869C0 28.7396 1.20942 29.9993 2.70011 29.9993H18.1638C18.0288 29.6009 17.9726 29.179 18.0176 28.7513L18.4001 25.183L18.4676 24.5326L18.912 24.0697L23.2603 19.5406C21.8821 17.9175 19.8852 16.8746 17.6407 16.8746ZM20.1889 25.3881L19.8064 28.9622C19.7445 29.5598 20.2283 30.0637 20.7964 29.9934L24.2222 29.595L31.9794 21.5151L27.9461 17.314L20.1889 25.3881ZM35.6076 15.7555L33.4757 13.5348C32.9525 12.9899 32.0975 12.9899 31.5744 13.5348L29.448 15.7496L29.2174 15.9899L33.2563 20.1909L35.6076 17.7418C36.1308 17.191 36.1308 16.3063 35.6076 15.7555Z" fill="#4E4E4D" fill-opacity="0.9"/>
</svg>
