<svg width="30" height="30" viewBox="0 0 30 30" fill="none" xmlns="http://www.w3.org/2000/svg">
<path d="M30 8.63646V7.21044L28.0915 6.62129L27.9442 5.92502L29.2902 4.53917L28.5938 3.24035L26.6518 3.74247L26.1696 3.24035L26.6719 1.35238L25.3929 0.575764L23.9665 1.9817L23.25 1.76746L22.7812 0H21.2679L20.8527 1.76746L20.0424 1.9817L18.7232 0.575764L17.4241 1.31221L17.9665 3.1667L17.4241 3.72908L15.5156 3.22696L14.779 4.50569L16.1652 5.91163L15.971 6.6079L14.0625 7.1301L14.0424 8.5829L15.971 9.08502L16.1317 9.89511L14.7857 11.2274L15.4821 12.466L17.4643 11.9638L17.9464 12.5396L17.404 14.3405L18.7366 15.1172L20.0357 13.7514L20.8125 13.9455L21.2612 15.8536L22.7746 15.8737L23.2232 13.9455L24 13.7112L25.3862 15.1573L26.7522 14.3472L26.1629 12.4727L26.6853 11.9304L28.6138 12.5195L29.3036 11.1738L27.904 9.9152L28.0513 9.10511L30 8.63646ZM22.0179 11.6626C19.9219 11.6626 18.2143 9.96206 18.2143 7.85985C18.2143 5.75764 19.9152 4.05713 22.0179 4.05713C24.1205 4.05713 25.8214 5.75764 25.8214 7.85985C25.8214 9.96876 24.1205 11.6626 22.0179 11.6626ZM26.8594 12.7605L30 13.7313V16.4026L26.3103 17.2997L26.0357 18.8195L28.6406 21.1828L27.3549 23.7201L23.7388 22.6021L22.7612 23.6197L23.8795 27.1346L21.3147 28.6543L18.7098 25.9429L17.2567 26.3847L16.4129 30L13.5737 29.9665L12.7299 26.378L11.2768 26.0031L8.83929 28.574L6.33482 27.1212L7.35268 23.7402L6.43527 22.6624L2.71875 23.6063L1.39955 21.2765L3.9375 18.7726L3.61607 17.2461L0 16.3022L0.0334821 13.5639L3.61607 12.5798L3.99777 11.2609L1.39286 8.62307L2.77902 6.22629L6.3683 7.17027L7.38616 6.11917L6.3683 2.6378L8.8058 1.25195L11.2701 3.88976L12.7902 3.48137L13.567 0H16.4062L17.183 3.07297L15.6696 2.67797L15.2478 2.56416L15.0268 2.94577L14.2902 4.2245L14.0692 4.59942L14.3772 4.90739L15.529 6.0723L15.5089 6.13925L13.9152 6.57442L13.5 6.68824L13.4933 7.11671L13.4799 7.98036C10.2991 8.67663 7.90179 11.5153 7.90179 14.9096C7.90179 18.8128 11.0692 21.9862 14.9799 21.9862C18.3616 21.9862 21.1875 19.6162 21.8906 16.4428L22.7746 16.4561L23.2366 16.4628L23.3438 16.0143L23.7188 14.4075L23.846 14.3673L24.9911 15.559L25.3058 15.8871L25.6942 15.6594L27.0603 14.8494L27.4487 14.615L27.3147 14.1799L26.8594 12.7605Z" fill="#4E4E4D" fill-opacity="0.9"/>
</svg>
